<svg xmlns="http://www.w3.org/2000/svg" viewBox="0 0 1056 1200" width="100%" height="100%" fill="none">
  <defs>
    <linearGradient id="gryffindorGold" x1="20%" y1="0%" x2="80%" y2="100%">
      <stop offset="0%" stop-color="#fff0a6" />
      <stop offset="45%" stop-color="#f3c252" />
      <stop offset="80%" stop-color="#dfa22c" />
      <stop offset="100%" stop-color="#a06612" />
    </linearGradient>
  </defs>
  <path fill-rule="evenodd" fill="url(#gryffindorGold)" d="M 74 673 L 65 687 L 60 703 L 60 718 L 62 726 L 70 744 L 84 764 L 97 778 L 99 782 L 109 793 L 115 798 L 117 796 L 117 786 L 118 778 L 120 773 L 120 767 L 130 745 L 138 734 L 149 723 L 163 712 L 166 712 L 168 709 L 164 706 L 137 706 L 116 703 L 110 700 L 105 699 L 98 696 L 91 691 L 80 679 L 79 675 L 77 673 Z M 899 227 L 892 223 L 883 215 L 861 200 L 856 198 L 850 193 L 843 190 L 827 180 L 808 171 L 804 168 L 802 168 L 768 152 L 760 150 L 755 147 L 747 145 L 744 143 L 738 142 L 733 139 L 729 139 L 724 136 L 717 135 L 711 132 L 683 126 L 680 124 L 675 124 L 666 121 L 650 118 L 643 118 L 638 116 L 618 115 L 612 113 L 585 111 L 534 112 L 521 115 L 503 116 L 499 118 L 488 119 L 468 125 L 465 124 L 467 121 L 472 117 L 477 115 L 483 110 L 488 108 L 492 104 L 497 102 L 530 81 L 538 78 L 545 73 L 549 72 L 553 69 L 559 67 L 571 60 L 573 60 L 578 56 L 581 56 L 594 50 L 595 48 L 592 44 L 587 43 L 580 43 L 574 41 L 561 39 L 510 38 L 485 40 L 473 43 L 459 44 L 450 47 L 441 48 L 434 51 L 430 51 L 424 54 L 418 55 L 412 58 L 409 58 L 404 61 L 385 68 L 382 71 L 378 72 L 369 78 L 362 81 L 334 103 L 318 120 L 311 129 L 308 136 L 303 142 L 303 144 L 292 167 L 291 175 L 288 183 L 287 198 L 285 202 L 284 216 L 287 248 L 245 283 L 216 313 L 204 328 L 192 345 L 190 351 L 187 354 L 183 362 L 183 364 L 180 368 L 179 374 L 176 379 L 171 394 L 171 398 L 167 411 L 163 417 L 162 421 L 156 427 L 141 438 L 135 441 L 125 449 L 120 451 L 98 467 L 95 468 L 91 472 L 75 483 L 64 492 L 48 508 L 41 520 L 41 535 L 43 541 L 49 551 L 58 561 L 64 573 L 65 583 L 62 596 L 62 614 L 66 628 L 70 634 L 72 640 L 80 649 L 94 662 L 120 676 L 125 677 L 128 679 L 139 680 L 147 683 L 172 683 L 190 679 L 195 676 L 198 676 L 217 665 L 229 653 L 238 641 L 241 641 L 244 643 L 250 644 L 256 648 L 258 648 L 271 654 L 300 663 L 309 664 L 318 667 L 333 668 L 345 671 L 361 672 L 392 671 L 402 668 L 414 667 L 417 665 L 424 664 L 435 659 L 437 659 L 448 654 L 458 648 L 461 645 L 464 644 L 477 634 L 487 624 L 496 613 L 501 605 L 511 583 L 515 563 L 515 533 L 511 512 L 507 499 L 505 496 L 503 488 L 500 484 L 500 481 L 496 475 L 496 473 L 493 469 L 489 460 L 489 457 L 497 464 L 513 483 L 519 493 L 527 503 L 529 508 L 539 523 L 539 526 L 542 531 L 548 549 L 551 554 L 551 561 L 554 573 L 554 599 L 551 615 L 548 620 L 546 628 L 538 643 L 530 654 L 518 667 L 504 679 L 478 696 L 476 696 L 464 703 L 459 704 L 444 711 L 441 711 L 436 714 L 426 716 L 420 719 L 416 719 L 412 721 L 396 724 L 388 727 L 380 727 L 373 728 L 368 730 L 338 733 L 277 735 L 269 736 L 260 739 L 253 739 L 233 745 L 206 757 L 186 769 L 161 790 L 144 809 L 132 826 L 130 831 L 120 847 L 119 852 L 115 859 L 115 861 L 112 866 L 111 871 L 108 877 L 107 884 L 104 890 L 101 901 L 98 917 L 98 923 L 96 928 L 95 952 L 93 968 L 96 1031 L 98 1036 L 99 1052 L 103 1067 L 103 1073 L 107 1085 L 107 1090 L 110 1099 L 110 1103 L 116 1125 L 119 1130 L 119 1135 L 122 1141 L 123 1147 L 125 1151 L 127 1151 L 128 1149 L 128 1101 L 129 1089 L 132 1075 L 132 1066 L 135 1061 L 135 1055 L 141 1034 L 143 1031 L 146 1021 L 150 1015 L 153 1007 L 155 1005 L 157 1000 L 160 997 L 161 994 L 167 987 L 168 984 L 179 973 L 180 970 L 185 967 L 195 957 L 198 956 L 212 945 L 218 943 L 220 941 L 233 935 L 237 932 L 245 930 L 258 924 L 262 924 L 270 920 L 278 919 L 282 917 L 290 915 L 295 915 L 310 911 L 316 911 L 322 908 L 332 908 L 344 905 L 369 903 L 376 901 L 399 899 L 411 896 L 421 896 L 439 892 L 446 892 L 468 887 L 475 884 L 479 884 L 486 882 L 489 880 L 501 876 L 507 872 L 512 871 L 532 855 L 541 845 L 542 858 L 540 864 L 539 880 L 536 887 L 535 894 L 533 897 L 531 906 L 529 908 L 525 918 L 520 924 L 519 927 L 504 943 L 487 954 L 482 955 L 478 958 L 461 963 L 453 964 L 445 967 L 424 968 L 416 970 L 365 972 L 322 977 L 319 979 L 312 979 L 303 981 L 296 984 L 292 984 L 277 991 L 272 992 L 252 1004 L 241 1013 L 233 1022 L 228 1026 L 227 1029 L 218 1040 L 204 1066 L 203 1072 L 200 1076 L 199 1083 L 196 1088 L 195 1096 L 192 1102 L 193 1104 L 196 1105 L 218 1090 L 241 1079 L 254 1075 L 257 1073 L 262 1073 L 278 1068 L 290 1067 L 302 1064 L 328 1063 L 369 1064 L 386 1067 L 406 1068 L 433 1072 L 456 1073 L 464 1075 L 479 1076 L 519 1076 L 531 1075 L 537 1073 L 545 1073 L 564 1069 L 573 1066 L 578 1063 L 582 1063 L 610 1049 L 638 1027 L 655 1009 L 670 990 L 671 987 L 680 975 L 693 950 L 695 948 L 695 946 L 699 940 L 700 936 L 703 932 L 703 930 L 707 923 L 708 918 L 716 901 L 716 898 L 719 893 L 720 887 L 727 871 L 732 855 L 732 852 L 735 846 L 736 839 L 738 836 L 740 829 L 740 825 L 743 818 L 744 809 L 747 803 L 751 782 L 754 777 L 756 779 L 756 781 L 759 786 L 763 799 L 763 802 L 767 811 L 767 816 L 770 824 L 773 840 L 773 846 L 776 859 L 776 868 L 778 876 L 779 910 L 775 948 L 772 959 L 771 971 L 768 978 L 767 988 L 765 991 L 763 1000 L 760 1006 L 759 1013 L 756 1018 L 755 1023 L 743 1047 L 742 1051 L 736 1060 L 737 1064 L 741 1064 L 746 1060 L 751 1058 L 758 1052 L 762 1051 L 770 1044 L 780 1038 L 805 1016 L 828 991 L 847 965 L 848 962 L 851 959 L 852 955 L 855 952 L 857 947 L 862 940 L 863 936 L 868 928 L 869 923 L 872 919 L 876 907 L 879 902 L 880 897 L 883 892 L 884 885 L 887 879 L 889 867 L 892 860 L 896 840 L 896 834 L 899 822 L 900 814 L 900 795 L 902 782 L 902 767 L 899 722 L 896 710 L 895 697 L 891 679 L 888 672 L 887 663 L 885 660 L 879 639 L 876 634 L 872 621 L 868 614 L 867 609 L 863 603 L 859 592 L 857 590 L 855 585 L 852 582 L 853 579 L 857 580 L 870 589 L 873 590 L 877 594 L 880 595 L 904 615 L 922 633 L 944 661 L 958 683 L 959 687 L 961 689 L 968 704 L 971 708 L 972 713 L 975 718 L 976 723 L 979 728 L 980 733 L 983 738 L 984 744 L 986 747 L 986 752 L 991 767 L 995 788 L 996 790 L 999 790 L 1008 750 L 1008 742 L 1011 733 L 1015 705 L 1019 643 L 1018 607 L 1014 566 L 1011 550 L 1008 541 L 1007 531 L 1004 524 L 1004 520 L 1000 510 L 999 504 L 996 499 L 995 492 L 992 487 L 991 482 L 984 469 L 982 462 L 980 460 L 976 451 L 964 431 L 960 427 L 958 422 L 943 403 L 921 380 L 914 375 L 907 368 L 903 366 L 897 360 L 861 337 L 857 336 L 853 333 L 847 331 L 835 324 L 829 323 L 825 320 L 819 319 L 812 315 L 791 308 L 784 307 L 763 300 L 753 299 L 739 295 L 733 295 L 731 293 L 735 289 L 739 288 L 746 283 L 748 283 L 755 279 L 778 272 L 790 271 L 795 269 L 810 268 L 840 268 L 866 272 L 875 272 L 889 276 L 895 276 L 912 280 L 919 283 L 928 284 L 931 286 L 955 294 L 960 295 L 962 294 L 962 292 L 959 287 L 952 280 L 950 276 L 921 246 L 914 241 Z M 351 382 L 352 384 L 348 389 L 343 393 L 317 420 L 296 438 L 281 447 L 275 448 L 269 451 L 262 451 L 256 453 L 249 459 L 245 461 L 226 479 L 225 474 L 228 464 L 231 459 L 232 454 L 236 447 L 236 445 L 245 430 L 256 420 L 264 416 L 271 415 L 279 411 L 284 411 L 289 408 L 295 407 L 298 405 L 312 401 Z" />
</svg>